<svg version="1.1" viewBox="0.0 0.0 490.0577427821522 484.79527559055117" fill="none" stroke="none" stroke-linecap="square" stroke-miterlimit="10" xmlns:xlink="http://www.w3.org/1999/xlink" xmlns="http://www.w3.org/2000/svg"><clipPath id="p.0"><path d="m0 0l490.05774 0l0 484.7953l-490.05774 0l0 -484.7953z" clip-rule="nonzero"/></clipPath><g clip-path="url(#p.0)"><path fill="#000000" fill-opacity="0.0" d="m0 0l490.05774 0l0 484.7953l-490.05774 0z" fill-rule="evenodd"/><path fill="#b4a7d6" d="m424.29666 303.89417l0 0c-0.2062378 97.836914 -77.063934 177.08029 -171.89966 177.23553l-0.27316284 -177.62183z" fill-rule="evenodd"/><path stroke="#595959" stroke-width="1.0" stroke-linejoin="round" stroke-linecap="butt" d="m424.29666 303.89417l0 0c-0.2062378 97.836914 -77.063934 177.08029 -171.89966 177.23553l-0.27316284 -177.62183z" fill-rule="evenodd"/><path fill="#351c75" d="m73.40518 291.1018l0 0c0.18323517 -47.18431 18.557137 -92.3544 51.067513 -125.54349c32.51037 -33.189087 76.48522 -51.669388 122.221504 -51.363228l-1.1171722 177.61829z" fill-rule="evenodd"/><path stroke="#595959" stroke-width="1.0" stroke-linejoin="round" stroke-linecap="butt" d="m73.40518 291.1018l0 0c0.18323517 -47.18431 18.557137 -92.3544 51.067513 -125.54349c32.51037 -33.189087 76.48522 -51.669388 122.221504 -51.363228l-1.1171722 177.61829z" fill-rule="evenodd"/><path fill="#674ea7" d="m246.35504 481.12466l0 0c-46.331375 0.36816406 -90.85118 -18.543518 -123.49807 -52.46109c-32.64688 -33.917603 -50.665146 -79.97809 -49.98269 -127.77197l172.15456 2.616272z" fill-rule="evenodd"/><path stroke="#595959" stroke-width="1.0" stroke-linejoin="round" stroke-linecap="butt" d="m246.35504 481.12466l0 0c-46.331375 0.36816406 -90.85118 -18.543518 -123.49807 -52.46109c-32.64688 -33.917603 -50.665146 -79.97809 -49.98269 -127.77197l172.15456 2.616272z" fill-rule="evenodd"/><path fill="#8e7cc3" d="m253.47308 114.19681l0 0c45.672546 0.36925507 89.33133 19.445297 121.36771 53.02977c32.036407 33.584488 49.82489 78.92502 49.4505 126.04283l-172.16745 -1.4560242z" fill-rule="evenodd"/><path stroke="#595959" stroke-width="1.0" stroke-linejoin="round" stroke-linecap="butt" d="m253.47308 114.19681l0 0c45.672546 0.36925507 89.33133 19.445297 121.36771 53.02977c32.036407 33.584488 49.82489 78.92502 49.4505 126.04283l-172.16745 -1.4560242z" fill-rule="evenodd"/><path fill="#000000" fill-opacity="0.0" d="m83.66628 178.47496l142.92914 0l0 106.645676l-142.92914 0z" fill-rule="evenodd"/><path fill="#ffffff" d="m149.97041 210.51495l0 -17.1875l5.1875 0l3.125 11.71875l3.078125 -11.71875l5.203125 0l0 17.1875l-3.21875 0l0 -13.53125l-3.421875 13.53125l-3.328125 0l-3.40625 -13.53125l0 13.53125l-3.21875 0zm19.257812 -6.40625q0 -1.640625 0.796875 -3.171875q0.8125 -1.53125 2.296875 -2.34375q1.484375 -0.8125 3.3125 -0.8125q2.828125 0 4.625 1.84375q1.8125 1.828125 1.8125 4.625q0 2.828125 -1.828125 4.6875q-1.828125 1.859375 -4.59375 1.859375q-1.703125 0 -3.265625 -0.765625q-1.546875 -0.78125 -2.359375 -2.265625q-0.796875 -1.5 -0.796875 -3.65625zm3.375 0.1875q0 1.84375 0.875 2.828125q0.875 0.984375 2.171875 0.984375q1.28125 0 2.15625 -0.984375q0.875 -0.984375 0.875 -2.859375q0 -1.828125 -0.875 -2.8125q-0.875 -0.984375 -2.15625 -0.984375q-1.296875 0 -2.171875 0.984375q-0.875 0.984375 -0.875 2.84375zm23.457031 6.21875l-3.0625 0l0 -1.828125q-0.765625 1.0625 -1.796875 1.59375q-1.03125 0.515625 -2.09375 0.515625q-2.140625 0 -3.671875 -1.71875q-1.53125 -1.734375 -1.53125 -4.828125q0 -3.171875 1.484375 -4.8125q1.5 -1.65625 3.765625 -1.65625q2.09375 0 3.609375 1.734375l0 -6.1875l3.296875 0l0 17.1875zm-8.796875 -6.5q0 2.0 0.5625 2.890625q0.796875 1.28125 2.21875 1.28125q1.140625 0 1.9375 -0.953125q0.796875 -0.96875 0.796875 -2.890625q0 -2.15625 -0.78125 -3.09375q-0.765625 -0.9375 -1.96875 -0.9375q-1.171875 0 -1.96875 0.9375q-0.796875 0.921875 -0.796875 2.765625zm19.253906 2.53125l3.28125 0.5625q-0.640625 1.796875 -2.015625 2.75q-1.359375 0.9375 -3.40625 0.9375q-3.25 0 -4.796875 -2.125q-1.234375 -1.703125 -1.234375 -4.28125q0 -3.09375 1.609375 -4.84375q1.625 -1.765625 4.09375 -1.765625q2.78125 0 4.375 1.84375q1.609375 1.828125 1.546875 5.609375l-8.25 0q0.03125 1.46875 0.796875 2.28125q0.765625 0.8125 1.890625 0.8125q0.78125 0 1.296875 -0.421875q0.53125 -0.421875 0.8125 -1.359375zm0.1875 -3.328125q-0.046875 -1.421875 -0.75 -2.15625q-0.703125 -0.75 -1.703125 -0.75q-1.078125 0 -1.78125 0.78125q-0.703125 0.78125 -0.6875 2.125l4.921875 0zm5.9414215 7.296875l0 -17.1875l3.296875 0l0 17.1875l-3.296875 0z" fill-rule="nonzero"/><path fill="#ffffff" d="m121.302444 233.79933l2.140625 -0.1875q0.15625 1.28125 0.703125 2.109375q0.5625 0.828125 1.734375 1.34375q1.171875 0.5 2.640625 0.5q1.296875 0 2.296875 -0.375q1.0 -0.390625 1.484375 -1.0625q0.484375 -0.6875 0.484375 -1.484375q0 -0.796875 -0.46875 -1.40625q-0.46875 -0.609375 -1.546875 -1.015625q-0.6875 -0.265625 -3.0625 -0.828125q-2.359375 -0.578125 -3.3125 -1.078125q-1.234375 -0.640625 -1.84375 -1.59375q-0.59375 -0.96875 -0.59375 -2.140625q0 -1.3125 0.734375 -2.4375q0.75 -1.125 2.15625 -1.703125q1.421875 -0.59375 3.15625 -0.59375q1.90625 0 3.359375 0.609375q1.46875 0.609375 2.25 1.8125q0.796875 1.1875 0.84375 2.703125l-2.171875 0.171875q-0.171875 -1.640625 -1.1875 -2.46875q-1.015625 -0.828125 -3.0 -0.828125q-2.0625 0 -3.015625 0.765625q-0.9375 0.75 -0.9375 1.8125q0 0.921875 0.671875 1.515625q0.65625 0.609375 3.421875 1.234375q2.78125 0.625 3.8125 1.09375q1.5 0.6875 2.203125 1.75q0.71875 1.0625 0.71875 2.4375q0 1.375 -0.78125 2.59375q-0.78125 1.203125 -2.25 1.890625q-1.46875 0.671875 -3.3125 0.671875q-2.328125 0 -3.90625 -0.671875q-1.578125 -0.6875 -2.484375 -2.046875q-0.890625 -1.375 -0.9375 -3.09375zm21.117188 3.625l0.3125 1.859375q-0.890625 0.203125 -1.59375 0.203125q-1.15625 0 -1.796875 -0.359375q-0.625 -0.375 -0.890625 -0.96875q-0.25 -0.59375 -0.25 -2.484375l0 -7.171875l-1.546875 0l0 -1.640625l1.546875 0l0 -3.078125l2.09375 -1.265625l0 4.34375l2.125 0l0 1.640625l-2.125 0l0 7.28125q0 0.90625 0.109375 1.171875q0.125 0.25 0.375 0.40625q0.25 0.140625 0.71875 0.140625q0.34375 0 0.921875 -0.078125zm2.0429688 1.890625l0 -12.453125l1.890625 0l0 1.890625q0.734375 -1.328125 1.34375 -1.75q0.625 -0.421875 1.359375 -0.421875q1.0625 0 2.171875 0.6875l-0.734375 1.953125q-0.765625 -0.453125 -1.546875 -0.453125q-0.6875 0 -1.25 0.421875q-0.546875 0.40625 -0.78125 1.140625q-0.34375 1.125 -0.34375 2.46875l0 6.515625l-2.109375 0zm16.164062 0l0 -1.828125q-1.453125 2.109375 -3.9375 2.109375q-1.109375 0 -2.0625 -0.421875q-0.953125 -0.421875 -1.421875 -1.0625q-0.453125 -0.640625 -0.640625 -1.5625q-0.140625 -0.625 -0.140625 -1.96875l0 -7.71875l2.109375 0l0 6.90625q0 1.65625 0.140625 2.234375q0.1875 0.828125 0.828125 1.3125q0.65625 0.46875 1.609375 0.46875q0.9375 0 1.765625 -0.484375q0.84375 -0.5 1.1875 -1.328125q0.34375 -0.84375 0.34375 -2.4375l0 -6.671875l2.109375 0l0 12.453125l-1.890625 0zm13.316406 -4.5625l2.078125 0.265625q-0.34375 2.15625 -1.75 3.375q-1.390625 1.203125 -3.4375 1.203125q-2.546875 0 -4.109375 -1.671875q-1.546875 -1.671875 -1.546875 -4.78125q0 -2.015625 0.671875 -3.53125q0.671875 -1.515625 2.03125 -2.265625q1.359375 -0.765625 2.96875 -0.765625q2.03125 0 3.3125 1.03125q1.296875 1.03125 1.65625 2.90625l-2.046875 0.328125q-0.296875 -1.265625 -1.046875 -1.890625q-0.734375 -0.640625 -1.796875 -0.640625q-1.59375 0 -2.59375 1.15625q-0.984375 1.140625 -0.984375 3.609375q0 2.5 0.953125 3.640625q0.96875 1.140625 2.515625 1.140625q1.234375 0 2.0625 -0.765625q0.84375 -0.765625 1.0625 -2.34375zm8.484375 2.671875l0.3125 1.859375q-0.890625 0.203125 -1.59375 0.203125q-1.15625 0 -1.796875 -0.359375q-0.625 -0.375 -0.890625 -0.96875q-0.25 -0.59375 -0.25 -2.484375l0 -7.171875l-1.546875 0l0 -1.640625l1.546875 0l0 -3.078125l2.09375 -1.265625l0 4.34375l2.125 0l0 1.640625l-2.125 0l0 7.28125q0 0.90625 0.109375 1.171875q0.125 0.25 0.375 0.40625q0.25 0.140625 0.71875 0.140625q0.34375 0 0.921875 -0.078125zm10.214844 1.890625l0 -1.828125q-1.453125 2.109375 -3.9375 2.109375q-1.109375 0 -2.0625 -0.421875q-0.953125 -0.421875 -1.421875 -1.0625q-0.453125 -0.640625 -0.640625 -1.5625q-0.140625 -0.625 -0.140625 -1.96875l0 -7.71875l2.109375 0l0 6.90625q0 1.65625 0.140625 2.234375q0.1875 0.828125 0.828125 1.3125q0.65625 0.46875 1.609375 0.46875q0.9375 0 1.765625 -0.484375q0.84375 -0.5 1.1875 -1.328125q0.34375 -0.84375 0.34375 -2.4375l0 -6.671875l2.109375 0l0 12.453125l-1.890625 0zm5.1757812 0l0 -12.453125l1.890625 0l0 1.890625q0.734375 -1.328125 1.34375 -1.75q0.625 -0.421875 1.359375 -0.421875q1.0625 0 2.171875 0.6875l-0.734375 1.953125q-0.765625 -0.453125 -1.546875 -0.453125q-0.6875 0 -1.25 0.421875q-0.546875 0.40625 -0.78125 1.140625q-0.34375 1.125 -0.34375 2.46875l0 6.515625l-2.109375 0zm16.539078 -4.015625l2.171875 0.28125q-0.515625 1.90625 -1.90625 2.96875q-1.390625 1.046875 -3.5625153 1.046875q-2.734375 0 -4.34375 -1.671875q-1.59375 -1.6875 -1.59375 -4.734375q0 -3.140625 1.609375 -4.875q1.625 -1.734375 4.203125 -1.734375q2.5000153 0 4.0781403 1.703125q1.59375 1.703125 1.59375 4.78125q0 0.1875 -0.015625 0.5625l-9.281265 0q0.109375 2.046875 1.15625 3.140625q1.046875 1.09375 2.609375 1.09375q1.1562653 0 1.9687653 -0.609375q0.828125 -0.609375 1.3125 -1.953125zm-6.9375153 -3.40625l6.9531403 0q-0.140625 -1.5625 -0.796875 -2.359375q-1.0 -1.21875 -2.6093903 -1.21875q-1.453125 0 -2.453125 0.984375q-0.984375 0.96875 -1.09375 2.59375z" fill-rule="nonzero"/><path fill="#ffffff" d="m168.75948 268.11496l0 -17.1875l5.90625 0q2.015625 0 3.0625 0.25q1.484375 0.34375 2.515625 1.234375q1.359375 1.140625 2.03125 2.9375q0.6875 1.78125 0.6875 4.078125q0 1.953125 -0.46875 3.46875q-0.453125 1.515625 -1.171875 2.515625q-0.703125 0.984375 -1.5625 1.546875q-0.84375 0.5625 -2.046875 0.859375q-1.203125 0.296875 -2.765625 0.296875l-6.1875 0zm2.265625 -2.03125l3.671875 0q1.703125 0 2.65625 -0.3125q0.96875 -0.3125 1.546875 -0.890625q0.8125 -0.8125 1.265625 -2.171875q0.453125 -1.375 0.453125 -3.3125q0 -2.703125 -0.890625 -4.140625q-0.890625 -1.453125 -2.15625 -1.9375q-0.90625 -0.359375 -2.9375 -0.359375l-3.609375 0l0 13.125zm22.910156 0.5q-1.171875 0.984375 -2.265625 1.40625q-1.078125 0.40625 -2.3125 0.40625q-2.046875 0 -3.15625 -1.0q-1.09375 -1.0 -1.09375 -2.5625q0 -0.921875 0.40625 -1.671875q0.421875 -0.75 1.09375 -1.203125q0.671875 -0.46875 1.515625 -0.703125q0.625 -0.15625 1.875 -0.3125q2.5625 -0.3125 3.765625 -0.734375q0.015625 -0.421875 0.015625 -0.546875q0 -1.28125 -0.609375 -1.8125q-0.796875 -0.71875 -2.390625 -0.71875q-1.5 0 -2.203125 0.53125q-0.703125 0.515625 -1.046875 1.84375l-2.0625 -0.28125q0.28125 -1.328125 0.921875 -2.140625q0.640625 -0.8125 1.859375 -1.25q1.21875 -0.453125 2.828125 -0.453125q1.59375 0 2.59375 0.375q1.0 0.375 1.46875 0.953125q0.46875 0.5625 0.65625 1.4375q0.09375 0.53125 0.09375 1.9375l0 2.8125q0 2.9375 0.140625 3.71875q0.140625 0.78125 0.53125 1.5l-2.203125 0q-0.328125 -0.65625 -0.421875 -1.53125zm-0.171875 -4.71875q-1.15625 0.46875 -3.453125 0.796875q-1.296875 0.1875 -1.84375 0.421875q-0.53125 0.234375 -0.828125 0.6875q-0.28125 0.453125 -0.28125 1.0q0 0.84375 0.625 1.40625q0.640625 0.5625 1.875 0.5625q1.21875 0 2.171875 -0.53125q0.953125 -0.53125 1.390625 -1.453125q0.34375 -0.71875 0.34375 -2.109375l0 -0.78125zm10.003906 4.359375l0.3125 1.859375q-0.890625 0.203125 -1.59375 0.203125q-1.15625 0 -1.796875 -0.359375q-0.625 -0.375 -0.890625 -0.96875q-0.25 -0.59375 -0.25 -2.484375l0 -7.171875l-1.546875 0l0 -1.640625l1.546875 0l0 -3.078125l2.09375 -1.265625l0 4.34375l2.125 0l0 1.640625l-2.125 0l0 7.28125q0 0.90625 0.109375 1.171875q0.125 0.25 0.375 0.40625q0.25 0.140625 0.71875 0.140625q0.34375 0 0.921875 -0.078125zm10.183609 0.359375q-1.171875 0.984375 -2.265625 1.40625q-1.0781403 0.40625 -2.3125153 0.40625q-2.046875 0 -3.15625 -1.0q-1.09375 -1.0 -1.09375 -2.5625q0 -0.921875 0.40625 -1.671875q0.421875 -0.75 1.09375 -1.203125q0.671875 -0.46875 1.515625 -0.703125q0.625 -0.15625 1.875 -0.3125q2.5625153 -0.3125 3.7656403 -0.734375q0.015625 -0.421875 0.015625 -0.546875q0 -1.28125 -0.609375 -1.8125q-0.796875 -0.71875 -2.3906403 -0.71875q-1.5 0 -2.203125 0.53125q-0.703125 0.515625 -1.046875 1.84375l-2.0625 -0.28125q0.28125 -1.328125 0.921875 -2.140625q0.640625 -0.8125 1.859375 -1.25q1.21875 -0.453125 2.828125 -0.453125q1.5937653 0 2.5937653 0.375q1.0 0.375 1.46875 0.953125q0.46875 0.5625 0.65625 1.4375q0.09375 0.53125 0.09375 1.9375l0 2.8125q0 2.9375 0.140625 3.71875q0.140625 0.78125 0.53125 1.5l-2.203125 0q-0.328125 -0.65625 -0.421875 -1.53125zm-0.171875 -4.71875q-1.15625 0.46875 -3.4531403 0.796875q-1.296875 0.1875 -1.84375 0.421875q-0.53125 0.234375 -0.828125 0.6875q-0.28125 0.453125 -0.28125 1.0q0 0.84375 0.625 1.40625q0.640625 0.5625 1.875 0.5625q1.21875 0 2.1718903 -0.53125q0.953125 -0.53125 1.390625 -1.453125q0.34375 -0.71875 0.34375 -2.109375l0 -0.78125z" fill-rule="nonzero"/><path fill="#000000" fill-opacity="0.0" d="m83.66721 329.2455l142.92914 0l0 106.64566l-142.92914 0z" fill-rule="evenodd"/><path fill="#ffffff" d="m133.0651 355.69174l3.375 -0.328125q0.296875 1.703125 1.21875 2.5q0.9375 0.796875 2.53125 0.796875q1.671875 0 2.515625 -0.703125q0.859375 -0.71875 0.859375 -1.671875q0 -0.609375 -0.359375 -1.03125q-0.359375 -0.421875 -1.25 -0.75q-0.609375 -0.203125 -2.78125 -0.75q-2.78125 -0.6875 -3.90625 -1.6875q-1.59375 -1.421875 -1.59375 -3.46875q0 -1.3125 0.75 -2.453125q0.75 -1.140625 2.140625 -1.734375q1.40625 -0.59375 3.390625 -0.59375q3.234375 0 4.859375 1.421875q1.640625 1.40625 1.71875 3.78125l-3.46875 0.140625q-0.21875 -1.3125 -0.953125 -1.890625q-0.734375 -0.59375 -2.203125 -0.59375q-1.5 0 -2.359375 0.625q-0.546875 0.40625 -0.546875 1.0625q0 0.609375 0.515625 1.046875q0.65625 0.546875 3.1875 1.15625q2.53125 0.59375 3.734375 1.234375q1.21875 0.640625 1.90625 1.75q0.6875 1.09375 0.6875 2.734375q0 1.46875 -0.828125 2.765625q-0.8125 1.28125 -2.3125 1.921875q-1.5 0.625 -3.75 0.625q-3.25 0 -5.0 -1.5q-1.75 -1.515625 -2.078125 -4.40625zm24.070312 1.625l3.28125 0.5625q-0.640625 1.796875 -2.015625 2.75q-1.359375 0.9375 -3.40625 0.9375q-3.25 0 -4.796875 -2.125q-1.234375 -1.703125 -1.234375 -4.28125q0 -3.09375 1.609375 -4.84375q1.625 -1.765625 4.09375 -1.765625q2.78125 0 4.375 1.84375q1.609375 1.828125 1.546875 5.609375l-8.25 0q0.03125 1.46875 0.796875 2.28125q0.765625 0.8125 1.890625 0.8125q0.78125 0 1.296875 -0.421875q0.53125 -0.421875 0.8125 -1.359375zm0.1875 -3.328125q-0.046875 -1.421875 -0.75 -2.15625q-0.703125 -0.75 -1.703125 -0.75q-1.078125 0 -1.78125 0.78125q-0.703125 0.78125 -0.6875 2.125l4.921875 0zm9.097656 7.296875l-3.296875 0l0 -12.453125l3.0625 0l0 1.78125q0.78125 -1.265625 1.40625 -1.65625q0.640625 -0.40625 1.4375 -0.40625q1.125 0 2.15625 0.625l-1.015625 2.875q-0.828125 -0.546875 -1.546875 -0.546875q-0.6875 0 -1.171875 0.390625q-0.484375 0.375 -0.765625 1.375q-0.265625 1.0 -0.265625 4.171875l0 3.84375zm9.605469 0l-5.015625 -12.453125l3.46875 0l2.34375 6.359375l0.671875 2.125q0.265625 -0.8125 0.34375 -1.078125q0.15625 -0.515625 0.34375 -1.046875l2.375 -6.359375l3.390625 0l-4.953125 12.453125l-2.96875 0zm9.925781 -14.140625l0 -3.046875l3.296875 0l0 3.046875l-3.296875 0zm0 14.140625l0 -12.453125l3.296875 0l0 12.453125l-3.296875 0zm17.527344 -8.765625l-3.25 0.578125q-0.15625 -0.96875 -0.75 -1.453125q-0.578125 -0.5 -1.5 -0.5q-1.234375 0 -1.96875 0.859375q-0.71875 0.84375 -0.71875 2.828125q0 2.21875 0.734375 3.140625q0.75 0.90625 2.0 0.90625q0.9375 0 1.53125 -0.53125q0.609375 -0.53125 0.84375 -1.828125l3.234375 0.546875q-0.5 2.21875 -1.9375 3.359375q-1.421875 1.140625 -3.828125 1.140625q-2.71875 0 -4.34375 -1.71875q-1.625 -1.734375 -1.625 -4.78125q0 -3.078125 1.625 -4.796875q1.625 -1.71875 4.40625 -1.71875q2.28125 0 3.609375 0.984375q1.34375 0.984375 1.9375 2.984375zm9.7070465 4.796875l3.28125 0.5625q-0.640625 1.796875 -2.015625 2.75q-1.359375 0.9375 -3.4062653 0.9375q-3.25 0 -4.796875 -2.125q-1.234375 -1.703125 -1.234375 -4.28125q0 -3.09375 1.609375 -4.84375q1.625 -1.765625 4.09375 -1.765625q2.7812653 0 4.3750153 1.84375q1.609375 1.828125 1.546875 5.609375l-8.250015 0q0.03125 1.46875 0.796875 2.28125q0.765625 0.8125 1.890625 0.8125q0.78126526 0 1.2968903 -0.421875q0.53125 -0.421875 0.8125 -1.359375zm0.1875 -3.328125q-0.046875 -1.421875 -0.75 -2.15625q-0.703125 -0.75 -1.7031403 -0.75q-1.078125 0 -1.78125 0.78125q-0.703125 0.78125 -0.6875 2.125l4.9218903 0z" fill-rule="nonzero"/><path fill="#ffffff" d="m155.34244 390.0855l0 -17.1875l6.4375 0q1.96875 0 3.15625 0.53125q1.1875 0.515625 1.859375 1.609375q0.6875 1.078125 0.6875 2.265625q0 1.09375 -0.609375 2.078125q-0.59375 0.96875 -1.796875 1.5625q1.5625 0.453125 2.390625 1.5625q0.84375 1.09375 0.84375 2.59375q0 1.203125 -0.515625 2.25q-0.5 1.03125 -1.25 1.59375q-0.75 0.5625 -1.890625 0.859375q-1.125 0.28125 -2.765625 0.28125l-6.546875 0zm2.265625 -9.96875l3.71875 0q1.515625 0 2.171875 -0.1875q0.859375 -0.265625 1.296875 -0.859375q0.4375 -0.59375 0.4375 -1.5q0 -0.859375 -0.40625 -1.5q-0.40625 -0.65625 -1.171875 -0.890625q-0.765625 -0.25 -2.609375 -0.25l-3.4375 0l0 5.1875zm0 7.9375l4.28125 0q1.09375 0 1.546875 -0.078125q0.78125 -0.140625 1.3125 -0.46875q0.53125 -0.328125 0.859375 -0.953125q0.34375 -0.625 0.34375 -1.453125q0 -0.953125 -0.5 -1.65625q-0.484375 -0.71875 -1.359375 -1.0q-0.875 -0.296875 -2.515625 -0.296875l-3.96875 0l0 5.90625zm13.5703125 -12.71875l0 -2.4375l2.109375 0l0 2.4375l-2.109375 0zm0 14.75l0 -12.453125l2.109375 0l0 12.453125l-2.109375 0zm4.4726562 -3.71875l2.09375 -0.328125q0.171875 1.25 0.96875 1.921875q0.8125 0.671875 2.25 0.671875q1.453125 0 2.15625 -0.59375q0.703125 -0.59375 0.703125 -1.390625q0 -0.71875 -0.625 -1.125q-0.421875 -0.28125 -2.15625 -0.71875q-2.3125 -0.578125 -3.21875 -1.0q-0.890625 -0.4375 -1.359375 -1.1875q-0.453125 -0.765625 -0.453125 -1.671875q0 -0.828125 0.375 -1.53125q0.390625 -0.71875 1.046875 -1.1875q0.484375 -0.359375 1.328125 -0.609375q0.859375 -0.265625 1.828125 -0.265625q1.46875 0 2.578125 0.421875q1.109375 0.421875 1.625 1.15625q0.53125 0.71875 0.734375 1.921875l-2.0625 0.28125q-0.140625 -0.96875 -0.8125 -1.5q-0.671875 -0.546875 -1.90625 -0.546875q-1.453125 0 -2.078125 0.484375q-0.625 0.484375 -0.625 1.125q0 0.40625 0.265625 0.734375q0.25 0.34375 0.8125 0.5625q0.3125 0.125 1.859375 0.546875q2.234375 0.59375 3.109375 0.984375q0.890625 0.375 1.390625 1.109375q0.515625 0.71875 0.515625 1.796875q0 1.046875 -0.625 1.984375q-0.609375 0.9375 -1.765625 1.453125q-1.15625 0.5 -2.625 0.5q-2.421875 0 -3.703125 -1.0q-1.265625 -1.015625 -1.625 -3.0zm12.84375 3.71875l0 -12.453125l1.90625 0l0 1.78125q1.375 -2.0625 3.953125 -2.0625q1.125 0 2.0625 0.40625q0.953125 0.40625 1.421875 1.0625q0.46875 0.65625 0.65625 1.5625q0.125 0.578125 0.125 2.046875l0 7.65625l-2.109375 0l0 -7.578125q0 -1.28125 -0.25 -1.921875q-0.25 -0.640625 -0.875 -1.015625q-0.625 -0.390625 -1.46875 -0.390625q-1.34375 0 -2.328125 0.859375q-0.984375 0.859375 -0.984375 3.25l0 6.796875l-2.109375 0zm13.363281 -14.75l0 -2.4375l2.109375 0l0 2.4375l-2.109375 0zm0 14.75l0 -12.453125l2.109375 0l0 12.453125l-2.109375 0zm4.4726562 -3.71875l2.09375 -0.328125q0.171875 1.25 0.96875 1.921875q0.8125 0.671875 2.25 0.671875q1.4531403 0 2.1562653 -0.59375q0.703125 -0.59375 0.703125 -1.390625q0 -0.71875 -0.625 -1.125q-0.421875 -0.28125 -2.15625 -0.71875q-2.3125153 -0.578125 -3.2187653 -1.0q-0.890625 -0.4375 -1.359375 -1.1875q-0.453125 -0.765625 -0.453125 -1.671875q0 -0.828125 0.375 -1.53125q0.390625 -0.71875 1.046875 -1.1875q0.484375 -0.359375 1.328125 -0.609375q0.859375 -0.265625 1.828125 -0.265625q1.4687653 0 2.5781403 0.421875q1.109375 0.421875 1.625 1.15625q0.53125 0.71875 0.734375 1.921875l-2.0625 0.28125q-0.140625 -0.96875 -0.8125 -1.5q-0.671875 -0.546875 -1.9062653 -0.546875q-1.453125 0 -2.078125 0.484375q-0.625 0.484375 -0.625 1.125q0 0.40625 0.265625 0.734375q0.25 0.34375 0.8125 0.5625q0.3125 0.125 1.859375 0.546875q2.2343903 0.59375 3.1093903 0.984375q0.890625 0.375 1.390625 1.109375q0.515625 0.71875 0.515625 1.796875q0 1.046875 -0.625 1.984375q-0.609375 0.9375 -1.765625 1.453125q-1.15625 0.5 -2.6250153 0.5q-2.421875 0 -3.703125 -1.0q-1.265625 -1.015625 -1.625 -3.0z" fill-rule="nonzero"/><path fill="#ffffff" d="m161.98697 418.8855l0 -17.1875l2.265625 0l0 15.15625l8.46875 0l0 2.03125l-10.734375 0zm12.378906 -6.21875q0 -3.46875 1.921875 -5.125q1.609375 -1.390625 3.921875 -1.390625q2.5625 0 4.1875 1.6875q1.625 1.6875 1.625 4.640625q0 2.40625 -0.71875 3.78125q-0.71875 1.375 -2.09375 2.140625q-1.375 0.765625 -3.0 0.765625q-2.625 0 -4.234375 -1.671875q-1.609375 -1.6875 -1.609375 -4.828125zm2.171875 0q0 2.390625 1.03125 3.578125q1.046875 1.1875 2.640625 1.1875q1.5625 0 2.609375 -1.1875q1.046875 -1.203125 1.046875 -3.65625q0 -2.3125 -1.0625 -3.5q-1.046875 -1.1875 -2.59375 -1.1875q-1.59375 0 -2.640625 1.1875q-1.03125 1.1875 -1.03125 3.578125zm11.582031 7.25l2.046875 0.3125q0.125 0.9375 0.71875 1.375q0.78125 0.59375 2.140625 0.59375q1.46875 0 2.265625 -0.59375q0.796875 -0.578125 1.078125 -1.640625q0.15625 -0.640625 0.140625 -2.703125q-1.375 1.625 -3.4375 1.625q-2.5625 0 -3.96875 -1.84375q-1.40625 -1.859375 -1.40625 -4.453125q0 -1.78125 0.640625 -3.28125q0.640625 -1.515625 1.859375 -2.328125q1.234375 -0.828125 2.890625 -0.828125q2.203125 0 3.625 1.78125l0 -1.5l1.953125 0l0 10.765625q0 2.90625 -0.59375 4.109375q-0.59375 1.21875 -1.875 1.921875q-1.28125 0.703125 -3.15625 0.703125q-2.234375 0 -3.609375 -1.0q-1.359375 -1.0 -1.3125 -3.015625zm1.734375 -7.484375q0 2.453125 0.96875 3.578125q0.984375 1.125 2.453125 1.125q1.453125 0 2.4375 -1.109375q0.984375 -1.125 0.984375 -3.515625q0 -2.28125 -1.015625 -3.4375q-1.015625 -1.171875 -2.453125 -1.171875q-1.40625 0 -2.390625 1.140625q-0.984375 1.140625 -0.984375 3.390625zm12.003906 -8.296875l0 -2.4375l2.109375 0l0 2.4375l-2.109375 0zm0 14.75l0 -12.453125l2.109375 0l0 12.453125l-2.109375 0zm13.4414215 -4.5625l2.078125 0.265625q-0.34375 2.15625 -1.75 3.375q-1.390625 1.203125 -3.4375 1.203125q-2.5468903 0 -4.1093903 -1.671875q-1.546875 -1.671875 -1.546875 -4.78125q0 -2.015625 0.671875 -3.53125q0.671875 -1.515625 2.03125 -2.265625q1.359375 -0.765625 2.9687653 -0.765625q2.03125 0 3.3125 1.03125q1.296875 1.03125 1.65625 2.90625l-2.046875 0.328125q-0.296875 -1.265625 -1.046875 -1.890625q-0.734375 -0.640625 -1.796875 -0.640625q-1.5937653 0 -2.5937653 1.15625q-0.984375 1.140625 -0.984375 3.609375q0 2.5 0.953125 3.640625q0.96875 1.140625 2.5156403 1.140625q1.234375 0 2.0625 -0.765625q0.84375 -0.765625 1.0625 -2.34375z" fill-rule="nonzero"/><path fill="#000000" fill-opacity="0.0" d="m263.3033 178.47496l142.92914 0l0 106.645676l-142.92914 0z" fill-rule="evenodd"/><path fill="#ffffff" d="m278.4283 210.51495l-6.140625 -17.1875l3.765625 0l4.34375 12.71875l4.21875 -12.71875l3.671875 0l-6.15625 17.1875l-3.703125 0zm11.167969 -14.140625l0 -3.046875l3.296875 0l0 3.046875l-3.296875 0zm0 14.140625l0 -12.453125l3.296875 0l0 12.453125l-3.296875 0zm13.886719 -3.96875l3.28125 0.5625q-0.640625 1.796875 -2.015625 2.75q-1.359375 0.9375 -3.40625 0.9375q-3.25 0 -4.796875 -2.125q-1.234375 -1.703125 -1.234375 -4.28125q0 -3.09375 1.609375 -4.84375q1.625 -1.765625 4.09375 -1.765625q2.78125 0 4.375 1.84375q1.609375 1.828125 1.546875 5.609375l-8.25 0q0.03125 1.46875 0.796875 2.28125q0.765625 0.8125 1.890625 0.8125q0.78125 0 1.296875 -0.421875q0.53125 -0.421875 0.8125 -1.359375zm0.1875 -3.328125q-0.046875 -1.421875 -0.75 -2.15625q-0.703125 -0.75 -1.703125 -0.75q-1.078125 0 -1.78125 0.78125q-0.703125 0.78125 -0.6875 2.125l4.921875 0zm8.269531 7.296875l-3.9375 -12.453125l3.203125 0l2.328125 8.15625l2.140625 -8.15625l3.171875 0l2.078125 8.15625l2.375 -8.15625l3.25 0l-4.0 12.453125l-3.15625 0l-2.140625 -8.0l-2.109375 8.0l-3.203125 0z" fill-rule="nonzero"/><path fill="#ffffff" d="m285.4283 222.12746l2.28125 0l0 9.9375q0 2.578125 -0.59375 4.109375q-0.578125 1.515625 -2.109375 2.484375q-1.53125 0.953125 -4.015625 0.953125q-2.421875 0 -3.953125 -0.828125q-1.53125 -0.84375 -2.1875 -2.421875q-0.65625 -1.578125 -0.65625 -4.296875l0 -9.9375l2.265625 0l0 9.921875q0 2.234375 0.421875 3.296875q0.421875 1.0625 1.421875 1.640625q1.015625 0.5625 2.484375 0.5625q2.515625 0 3.578125 -1.125q1.0625 -1.140625 1.0625 -4.375l0 -9.921875zm4.9414062 13.46875l2.09375 -0.328125q0.171875 1.25 0.96875 1.921875q0.8125 0.671875 2.25 0.671875q1.453125 0 2.15625 -0.59375q0.703125 -0.59375 0.703125 -1.390625q0 -0.71875 -0.625 -1.125q-0.421875 -0.28125 -2.15625 -0.71875q-2.3125 -0.578125 -3.21875 -1.0q-0.890625 -0.4375 -1.359375 -1.1875q-0.453125 -0.765625 -0.453125 -1.671875q0 -0.828125 0.375 -1.53125q0.390625 -0.71875 1.046875 -1.1875q0.484375 -0.359375 1.328125 -0.609375q0.859375 -0.265625 1.828125 -0.265625q1.46875 0 2.578125 0.421875q1.109375 0.421875 1.625 1.15625q0.53125 0.71875 0.734375 1.921875l-2.0625 0.28125q-0.140625 -0.96875 -0.8125 -1.5q-0.671875 -0.546875 -1.90625 -0.546875q-1.453125 0 -2.078125 0.484375q-0.625 0.484375 -0.625 1.125q0 0.40625 0.265625 0.734375q0.25 0.34375 0.8125 0.5625q0.3125 0.125 1.859375 0.546875q2.234375 0.59375 3.109375 0.984375q0.890625 0.375 1.390625 1.109375q0.515625 0.71875 0.515625 1.796875q0 1.046875 -0.625 1.984375q-0.609375 0.9375 -1.765625 1.453125q-1.15625 0.5 -2.625 0.5q-2.421875 0 -3.703125 -1.0q-1.265625 -1.015625 -1.625 -3.0zm21.375 -0.296875l2.171875 0.28125q-0.515625 1.90625 -1.90625 2.96875q-1.390625 1.046875 -3.5625 1.046875q-2.734375 0 -4.34375 -1.671875q-1.59375 -1.6875 -1.59375 -4.734375q0 -3.140625 1.609375 -4.875q1.625 -1.734375 4.203125 -1.734375q2.5 0 4.078125 1.703125q1.59375 1.703125 1.59375 4.78125q0 0.1875 -0.015625 0.5625l-9.28125 0q0.109375 2.046875 1.15625 3.140625q1.046875 1.09375 2.609375 1.09375q1.15625 0 1.96875 -0.609375q0.828125 -0.609375 1.3125 -1.953125zm-6.9375 -3.40625l6.953125 0q-0.140625 -1.5625 -0.796875 -2.359375q-1.0 -1.21875 -2.609375 -1.21875q-1.453125 0 -2.453125 0.984375q-0.984375 0.96875 -1.09375 2.59375zm11.738281 7.421875l0 -12.453125l1.890625 0l0 1.890625q0.734375 -1.328125 1.34375 -1.75q0.625 -0.421875 1.359375 -0.421875q1.0625 0 2.171875 0.6875l-0.734375 1.953125q-0.765625 -0.453125 -1.546875 -0.453125q-0.6875 0 -1.25 0.421875q-0.546875 0.40625 -0.78125 1.140625q-0.34375 1.125 -0.34375 2.46875l0 6.515625l-2.109375 0z" fill-rule="nonzero"/><path fill="#ffffff" d="m274.5377 268.11496l0 -17.1875l2.28125 0l0 17.1875l-2.28125 0zm6.0117188 0l0 -12.453125l1.90625 0l0 1.78125q1.375 -2.0625 3.953125 -2.0625q1.125 0 2.0625 0.40625q0.953125 0.40625 1.421875 1.0625q0.46875 0.65625 0.65625 1.5625q0.125 0.578125 0.125 2.046875l0 7.65625l-2.109375 0l0 -7.578125q0 -1.28125 -0.25 -1.921875q-0.25 -0.640625 -0.875 -1.015625q-0.625 -0.390625 -1.46875 -0.390625q-1.34375 0 -2.328125 0.859375q-0.984375 0.859375 -0.984375 3.25l0 6.796875l-2.109375 0zm17.957031 -1.890625l0.3125 1.859375q-0.890625 0.203125 -1.59375 0.203125q-1.15625 0 -1.796875 -0.359375q-0.625 -0.375 -0.890625 -0.96875q-0.25 -0.59375 -0.25 -2.484375l0 -7.171875l-1.546875 0l0 -1.640625l1.546875 0l0 -3.078125l2.09375 -1.265625l0 4.34375l2.125 0l0 1.640625l-2.125 0l0 7.28125q0 0.90625 0.109375 1.171875q0.125 0.25 0.375 0.40625q0.25 0.140625 0.71875 0.140625q0.34375 0 0.921875 -0.078125zm10.589844 -2.125l2.171875 0.28125q-0.515625 1.90625 -1.90625 2.96875q-1.390625 1.046875 -3.5625 1.046875q-2.734375 0 -4.34375 -1.671875q-1.59375 -1.6875 -1.59375 -4.734375q0 -3.140625 1.609375 -4.875q1.625 -1.734375 4.203125 -1.734375q2.5 0 4.078125 1.703125q1.59375 1.703125 1.59375 4.78125q0 0.1875 -0.015625 0.5625l-9.28125 0q0.109375 2.046875 1.15625 3.140625q1.046875 1.09375 2.609375 1.09375q1.15625 0 1.96875 -0.609375q0.828125 -0.609375 1.3125 -1.953125zm-6.9375 -3.40625l6.953125 0q-0.140625 -1.5625 -0.796875 -2.359375q-1.0 -1.21875 -2.609375 -1.21875q-1.453125 0 -2.453125 0.984375q-0.984375 0.96875 -1.09375 2.59375zm11.738281 7.421875l0 -12.453125l1.890625 0l0 1.890625q0.734375 -1.328125 1.34375 -1.75q0.625 -0.421875 1.359375 -0.421875q1.0625 0 2.171875 0.6875l-0.734375 1.953125q-0.765625 -0.453125 -1.546875 -0.453125q-0.6875 0 -1.25 0.421875q-0.546875 0.40625 -0.78125 1.140625q-0.34375 1.125 -0.34375 2.46875l0 6.515625l-2.109375 0zm8.5234375 0l0 -10.8125l-1.875 0l0 -1.640625l1.875 0l0 -1.3125q0 -1.265625 0.21875 -1.875q0.296875 -0.8125 1.0625 -1.3125q0.78125 -0.515625 2.15625 -0.515625q0.890625 0 1.96875 0.203125l-0.3125 1.84375q-0.65625 -0.125 -1.25 -0.125q-0.953125 0 -1.359375 0.421875q-0.390625 0.40625 -0.390625 1.53125l0 1.140625l2.421875 0l0 1.640625l-2.421875 0l0 10.8125l-2.09375 0zm14.277344 -1.53125q-1.171875 0.984375 -2.265625 1.40625q-1.078125 0.40625 -2.3125 0.40625q-2.046875 0 -3.15625 -1.0q-1.09375 -1.0 -1.09375 -2.5625q0 -0.921875 0.40625 -1.671875q0.421875 -0.75 1.09375 -1.203125q0.671875 -0.46875 1.515625 -0.703125q0.625 -0.15625 1.875 -0.3125q2.5625 -0.3125 3.765625 -0.734375q0.015625 -0.421875 0.015625 -0.546875q0 -1.28125 -0.609375 -1.8125q-0.796875 -0.71875 -2.390625 -0.71875q-1.5 0 -2.203125 0.53125q-0.703125 0.515625 -1.046875 1.84375l-2.0625 -0.28125q0.28125 -1.328125 0.921875 -2.140625q0.640625 -0.8125 1.859375 -1.25q1.21875 -0.453125 2.828125 -0.453125q1.59375 0 2.59375 0.375q1.0 0.375 1.46875 0.953125q0.46875 0.5625 0.65625 1.4375q0.09375 0.53125 0.09375 1.9375l0 2.8125q0 2.9375 0.140625 3.71875q0.140625 0.78125 0.53125 1.5l-2.203125 0q-0.328125 -0.65625 -0.421875 -1.53125zm-0.171875 -4.71875q-1.15625 0.46875 -3.453125 0.796875q-1.296875 0.1875 -1.84375 0.421875q-0.53125 0.234375 -0.828125 0.6875q-0.28125 0.453125 -0.28125 1.0q0 0.84375 0.625 1.40625q0.640625 0.5625 1.875 0.5625q1.21875 0 2.171875 -0.53125q0.953125 -0.53125 1.390625 -1.453125q0.34375 -0.71875 0.34375 -2.109375l0 -0.78125zm13.519531 1.6875l2.078125 0.265625q-0.34375 2.15625 -1.75 3.375q-1.390625 1.203125 -3.4375 1.203125q-2.546875 0 -4.109375 -1.671875q-1.546875 -1.671875 -1.546875 -4.78125q0 -2.015625 0.671875 -3.53125q0.671875 -1.515625 2.03125 -2.265625q1.359375 -0.765625 2.96875 -0.765625q2.03125 0 3.3125 1.03125q1.296875 1.03125 1.65625 2.90625l-2.046875 0.328125q-0.296875 -1.265625 -1.046875 -1.890625q-0.734375 -0.640625 -1.796875 -0.640625q-1.59375 0 -2.59375 1.15625q-0.984375 1.140625 -0.984375 3.609375q0 2.5 0.953125 3.640625q0.96875 1.140625 2.515625 1.140625q1.234375 0 2.0625 -0.765625q0.84375 -0.765625 1.0625 -2.34375zm12.40625 0.546875l2.171875 0.28125q-0.515625 1.90625 -1.90625 2.96875q-1.390625 1.046875 -3.5625 1.046875q-2.734375 0 -4.34375 -1.671875q-1.59375 -1.6875 -1.59375 -4.734375q0 -3.140625 1.609375 -4.875q1.625 -1.734375 4.203125 -1.734375q2.5 0 4.078125 1.703125q1.59375 1.703125 1.59375 4.78125q0 0.1875 -0.015625 0.5625l-9.28125 0q0.109375 2.046875 1.15625 3.140625q1.046875 1.09375 2.609375 1.09375q1.15625 0 1.96875 -0.609375q0.828125 -0.609375 1.3125 -1.953125zm-6.9375 -3.40625l6.953125 0q-0.140625 -1.5625 -0.796875 -2.359375q-1.0 -1.21875 -2.609375 -1.21875q-1.453125 0 -2.453125 0.984375q-0.984375 0.96875 -1.09375 2.59375z" fill-rule="nonzero"/><path fill="#000000" fill-opacity="0.0" d="m263.30444 329.2455l142.92914 0l0 106.64566l-142.92914 0z" fill-rule="evenodd"/><path fill="#ffffff" d="m285.03882 354.973l3.375 1.0625q-0.78125 2.8125 -2.578125 4.1875q-1.796875 1.359375 -4.5625 1.359375q-3.421875 0 -5.625 -2.34375q-2.203125 -2.34375 -2.203125 -6.390625q0 -4.296875 2.203125 -6.65625q2.21875 -2.375 5.828125 -2.375q3.15625 0 5.125 1.859375q1.171875 1.09375 1.765625 3.15625l-3.4375 0.828125q-0.3125 -1.34375 -1.28125 -2.109375q-0.953125 -0.78125 -2.34375 -0.78125q-1.90625 0 -3.09375 1.375q-1.1875 1.375 -1.1875 4.4375q0 3.265625 1.171875 4.65625q1.171875 1.375 3.046875 1.375q1.375 0 2.375 -0.875q1.0 -0.890625 1.421875 -2.765625zm5.5664062 -0.09375q0 -1.640625 0.796875 -3.171875q0.8125 -1.53125 2.296875 -2.34375q1.484375 -0.8125 3.3125 -0.8125q2.828125 0 4.625 1.84375q1.8125 1.828125 1.8125 4.625q0 2.828125 -1.828125 4.6875q-1.828125 1.859375 -4.59375 1.859375q-1.703125 0 -3.265625 -0.765625q-1.546875 -0.78125 -2.359375 -2.265625q-0.796875 -1.5 -0.796875 -3.65625zm3.375 0.1875q0 1.84375 0.875 2.828125q0.875 0.984375 2.171875 0.984375q1.28125 0 2.15625 -0.984375q0.875 -0.984375 0.875 -2.859375q0 -1.828125 -0.875 -2.8125q-0.875 -0.984375 -2.15625 -0.984375q-1.296875 0 -2.171875 0.984375q-0.875 0.984375 -0.875 2.84375zm23.363281 6.21875l-3.296875 0l0 -6.359375q0 -2.015625 -0.21875 -2.59375q-0.203125 -0.59375 -0.6875 -0.921875q-0.46875 -0.328125 -1.125 -0.328125q-0.859375 0 -1.546875 0.46875q-0.671875 0.46875 -0.921875 1.25q-0.25 0.765625 -0.25 2.84375l0 5.640625l-3.296875 0l0 -12.453125l3.0625 0l0 1.828125q1.625 -2.109375 4.09375 -2.109375q1.09375 0 1.984375 0.40625q0.90625 0.390625 1.375 1.0q0.46875 0.609375 0.640625 1.390625q0.1875 0.765625 0.1875 2.203125l0 7.734375zm9.050781 -12.453125l0 2.625l-2.25 0l0 5.015625q0 1.53125 0.0625 1.78125q0.0625 0.25 0.28125 0.421875q0.234375 0.15625 0.5625 0.15625q0.453125 0 1.328125 -0.3125l0.28125 2.546875q-1.15625 0.5 -2.609375 0.5q-0.890625 0 -1.609375 -0.296875q-0.703125 -0.296875 -1.046875 -0.765625q-0.328125 -0.484375 -0.453125 -1.296875q-0.109375 -0.578125 -0.109375 -2.3125l0 -5.4375l-1.515625 0l0 -2.625l1.515625 0l0 -2.46875l3.3125 -1.921875l0 4.390625l2.25 0zm5.4296875 12.453125l-3.296875 0l0 -12.453125l3.0625 0l0 1.78125q0.78125 -1.265625 1.40625 -1.65625q0.640625 -0.40625 1.4375 -0.40625q1.125 0 2.15625 0.625l-1.015625 2.875q-0.828125 -0.546875 -1.546875 -0.546875q-0.6875 0 -1.171875 0.390625q-0.484375 0.375 -0.765625 1.375q-0.265625 1.0 -0.265625 4.171875l0 3.84375zm5.4335938 -6.40625q0 -1.640625 0.796875 -3.171875q0.8125 -1.53125 2.296875 -2.34375q1.484375 -0.8125 3.3125 -0.8125q2.828125 0 4.625 1.84375q1.8125 1.828125 1.8125 4.625q0 2.828125 -1.828125 4.6875q-1.828125 1.859375 -4.59375 1.859375q-1.703125 0 -3.265625 -0.765625q-1.546875 -0.78125 -2.359375 -2.265625q-0.796875 -1.5 -0.796875 -3.65625zm3.375 0.1875q0 1.84375 0.875 2.828125q0.875 0.984375 2.171875 0.984375q1.28125 0 2.15625 -0.984375q0.875 -0.984375 0.875 -2.859375q0 -1.828125 -0.875 -2.8125q-0.875 -0.984375 -2.15625 -0.984375q-1.296875 0 -2.171875 0.984375q-0.875 0.984375 -0.875 2.84375zm12.035156 6.21875l0 -17.1875l3.296875 0l0 17.1875l-3.296875 0zm6.6679688 0l0 -17.1875l3.296875 0l0 17.1875l-3.296875 0zm13.886719 -3.96875l3.28125 0.5625q-0.640625 1.796875 -2.015625 2.75q-1.359375 0.9375 -3.40625 0.9375q-3.25 0 -4.796875 -2.125q-1.234375 -1.703125 -1.234375 -4.28125q0 -3.09375 1.609375 -4.84375q1.625 -1.765625 4.09375 -1.765625q2.78125 0 4.375 1.84375q1.609375 1.828125 1.546875 5.609375l-8.25 0q0.03125 1.46875 0.796875 2.28125q0.765625 0.8125 1.890625 0.8125q0.78125 0 1.296875 -0.421875q0.53125 -0.421875 0.8125 -1.359375zm0.1875 -3.328125q-0.046875 -1.421875 -0.75 -2.15625q-0.703125 -0.75 -1.703125 -0.75q-1.078125 0 -1.78125 0.78125q-0.703125 0.78125 -0.6875 2.125l4.921875 0zm9.097656 7.296875l-3.296875 0l0 -12.453125l3.0625 0l0 1.78125q0.78125 -1.265625 1.40625 -1.65625q0.640625 -0.40625 1.4375 -0.40625q1.125 0 2.15625 0.625l-1.015625 2.875q-0.828125 -0.546875 -1.546875 -0.546875q-0.6875 0 -1.171875 0.390625q-0.484375 0.375 -0.765625 1.375q-0.265625 1.0 -0.265625 4.171875l0 3.84375z" fill-rule="nonzero"/><path fill="#ffffff" d="m272.2732 390.0855l6.59375 -17.1875l2.453125 0l7.03125 17.1875l-2.59375 0l-2.0 -5.203125l-7.1875 0l-1.890625 5.203125l-2.40625 0zm4.953125 -7.0625l5.828125 0l-1.796875 -4.75q-0.8125 -2.171875 -1.21875 -3.5625q-0.328125 1.65625 -0.921875 3.28125l-1.890625 5.03125zm12.6640625 11.828125l0 -17.21875l1.921875 0l0 1.625q0.6875 -0.953125 1.53125 -1.421875q0.859375 -0.484375 2.078125 -0.484375q1.59375 0 2.8125 0.828125q1.21875 0.8125 1.84375 2.3125q0.625 1.5 0.625 3.28125q0 1.90625 -0.6875 3.4375q-0.6875 1.53125 -2.0 2.34375q-1.296875 0.8125 -2.734375 0.8125q-1.0625 0 -1.90625 -0.4375q-0.828125 -0.453125 -1.375 -1.140625l0 6.0625l-2.109375 0zm1.921875 -10.921875q0 2.40625 0.96875 3.5625q0.96875 1.140625 2.359375 1.140625q1.40625 0 2.40625 -1.1875q1.0 -1.1875 1.0 -3.6875q0 -2.375 -0.984375 -3.5625q-0.96875 -1.1875 -2.328125 -1.1875q-1.359375 0 -2.390625 1.265625q-1.03125 1.25 -1.03125 3.65625zm11.425781 10.921875l0 -17.21875l1.921875 0l0 1.625q0.6875 -0.953125 1.53125 -1.421875q0.859375 -0.484375 2.078125 -0.484375q1.59375 0 2.8125 0.828125q1.21875 0.8125 1.84375 2.3125q0.625 1.5 0.625 3.28125q0 1.90625 -0.6875 3.4375q-0.6875 1.53125 -2.0 2.34375q-1.296875 0.8125 -2.734375 0.8125q-1.0625 0 -1.90625 -0.4375q-0.828125 -0.453125 -1.375 -1.140625l0 6.0625l-2.109375 0zm1.921875 -10.921875q0 2.40625 0.96875 3.5625q0.96875 1.140625 2.359375 1.140625q1.40625 0 2.40625 -1.1875q1.0 -1.1875 1.0 -3.6875q0 -2.375 -0.984375 -3.5625q-0.96875 -1.1875 -2.328125 -1.1875q-1.359375 0 -2.390625 1.265625q-1.03125 1.25 -1.03125 3.65625zm11.378906 6.15625l0 -17.1875l2.109375 0l0 17.1875l-2.109375 0zm5.3945312 -14.75l0 -2.4375l2.109375 0l0 2.4375l-2.109375 0zm0 14.75l0 -12.453125l2.109375 0l0 12.453125l-2.109375 0zm13.441406 -4.5625l2.078125 0.265625q-0.34375 2.15625 -1.75 3.375q-1.390625 1.203125 -3.4375 1.203125q-2.546875 0 -4.109375 -1.671875q-1.546875 -1.671875 -1.546875 -4.78125q0 -2.015625 0.671875 -3.53125q0.671875 -1.515625 2.03125 -2.265625q1.359375 -0.765625 2.96875 -0.765625q2.03125 0 3.3125 1.03125q1.296875 1.03125 1.65625 2.90625l-2.046875 0.328125q-0.296875 -1.265625 -1.046875 -1.890625q-0.734375 -0.640625 -1.796875 -0.640625q-1.59375 0 -2.59375 1.15625q-0.984375 1.140625 -0.984375 3.609375q0 2.5 0.953125 3.640625q0.96875 1.140625 2.515625 1.140625q1.234375 0 2.0625 -0.765625q0.84375 -0.765625 1.0625 -2.34375zm12.0 3.03125q-1.171875 0.984375 -2.265625 1.40625q-1.078125 0.40625 -2.3125 0.40625q-2.046875 0 -3.15625 -1.0q-1.09375 -1.0 -1.09375 -2.5625q0 -0.921875 0.40625 -1.671875q0.421875 -0.75 1.09375 -1.203125q0.671875 -0.46875 1.515625 -0.703125q0.625 -0.15625 1.875 -0.3125q2.5625 -0.3125 3.765625 -0.734375q0.015625 -0.421875 0.015625 -0.546875q0 -1.28125 -0.609375 -1.8125q-0.796875 -0.71875 -2.390625 -0.71875q-1.5 0 -2.203125 0.53125q-0.703125 0.515625 -1.046875 1.84375l-2.0625 -0.28125q0.28125 -1.328125 0.921875 -2.140625q0.640625 -0.8125 1.859375 -1.25q1.21875 -0.453125 2.828125 -0.453125q1.59375 0 2.59375 0.375q1.0 0.375 1.46875 0.953125q0.46875 0.5625 0.65625 1.4375q0.09375 0.53125 0.09375 1.9375l0 2.8125q0 2.9375 0.140625 3.71875q0.140625 0.78125 0.53125 1.5l-2.203125 0q-0.328125 -0.65625 -0.421875 -1.53125zm-0.171875 -4.71875q-1.15625 0.46875 -3.453125 0.796875q-1.296875 0.1875 -1.84375 0.421875q-0.53125 0.234375 -0.828125 0.6875q-0.28125 0.453125 -0.28125 1.0q0 0.84375 0.625 1.40625q0.640625 0.5625 1.875 0.5625q1.21875 0 2.171875 -0.53125q0.953125 -0.53125 1.390625 -1.453125q0.34375 -0.71875 0.34375 -2.109375l0 -0.78125zm10.003906 4.359375l0.3125 1.859375q-0.890625 0.203125 -1.59375 0.203125q-1.15625 0 -1.796875 -0.359375q-0.625 -0.375 -0.890625 -0.96875q-0.25 -0.59375 -0.25 -2.484375l0 -7.171875l-1.546875 0l0 -1.640625l1.546875 0l0 -3.078125l2.09375 -1.265625l0 4.34375l2.125 0l0 1.640625l-2.125 0l0 7.28125q0 0.90625 0.109375 1.171875q0.125 0.25 0.375 0.40625q0.25 0.140625 0.71875 0.140625q0.34375 0 0.921875 -0.078125zm2.0742188 -12.859375l0 -2.4375l2.109375 0l0 2.4375l-2.109375 0zm0 14.75l0 -12.453125l2.109375 0l0 12.453125l-2.109375 0zm4.5351562 -6.21875q0 -3.46875 1.921875 -5.125q1.609375 -1.390625 3.921875 -1.390625q2.5625 0 4.1875 1.6875q1.625 1.6875 1.625 4.640625q0 2.40625 -0.71875 3.78125q-0.71875 1.375 -2.09375 2.140625q-1.375 0.765625 -3.0 0.765625q-2.625 0 -4.234375 -1.671875q-1.609375 -1.6875 -1.609375 -4.828125zm2.171875 0q0 2.390625 1.03125 3.578125q1.046875 1.1875 2.640625 1.1875q1.5625 0 2.609375 -1.1875q1.046875 -1.203125 1.046875 -3.65625q0 -2.3125 -1.0625 -3.5q-1.046875 -1.1875 -2.59375 -1.1875q-1.59375 0 -2.640625 1.1875q-1.03125 1.1875 -1.03125 3.578125zm11.957031 6.21875l0 -12.453125l1.90625 0l0 1.78125q1.375 -2.0625 3.953125 -2.0625q1.125 0 2.0625 0.40625q0.953125 0.40625 1.421875 1.0625q0.46875 0.65625 0.65625 1.5625q0.125 0.578125 0.125 2.046875l0 7.65625l-2.109375 0l0 -7.578125q0 -1.28125 -0.25 -1.921875q-0.25 -0.640625 -0.875 -1.015625q-0.625 -0.390625 -1.46875 -0.390625q-1.34375 0 -2.328125 0.859375q-0.984375 0.859375 -0.984375 3.25l0 6.796875l-2.109375 0z" fill-rule="nonzero"/><path fill="#ffffff" d="m274.07007 418.8855l0 -17.1875l2.265625 0l0 15.15625l8.46875 0l0 2.03125l-10.734375 0zm12.378906 -6.21875q0 -3.46875 1.921875 -5.125q1.609375 -1.390625 3.921875 -1.390625q2.5625 0 4.1875 1.6875q1.625 1.6875 1.625 4.640625q0 2.40625 -0.71875 3.78125q-0.71875 1.375 -2.09375 2.140625q-1.375 0.765625 -3.0 0.765625q-2.625 0 -4.234375 -1.671875q-1.609375 -1.6875 -1.609375 -4.828125zm2.171875 0q0 2.390625 1.03125 3.578125q1.046875 1.1875 2.640625 1.1875q1.5625 0 2.609375 -1.1875q1.046875 -1.203125 1.046875 -3.65625q0 -2.3125 -1.0625 -3.5q-1.046875 -1.1875 -2.59375 -1.1875q-1.59375 0 -2.640625 1.1875q-1.03125 1.1875 -1.03125 3.578125zm11.582031 7.25l2.046875 0.3125q0.125 0.9375 0.71875 1.375q0.78125 0.59375 2.140625 0.59375q1.46875 0 2.265625 -0.59375q0.796875 -0.578125 1.078125 -1.640625q0.15625 -0.640625 0.140625 -2.703125q-1.375 1.625 -3.4375 1.625q-2.5625 0 -3.96875 -1.84375q-1.40625 -1.859375 -1.40625 -4.453125q0 -1.78125 0.640625 -3.28125q0.640625 -1.515625 1.859375 -2.328125q1.234375 -0.828125 2.890625 -0.828125q2.203125 0 3.625 1.78125l0 -1.5l1.953125 0l0 10.765625q0 2.90625 -0.59375 4.109375q-0.59375 1.21875 -1.875 1.921875q-1.28125 0.703125 -3.15625 0.703125q-2.234375 0 -3.609375 -1.0q-1.359375 -1.0 -1.3125 -3.015625zm1.734375 -7.484375q0 2.453125 0.96875 3.578125q0.984375 1.125 2.453125 1.125q1.453125 0 2.4375 -1.109375q0.984375 -1.125 0.984375 -3.515625q0 -2.28125 -1.015625 -3.4375q-1.015625 -1.171875 -2.453125 -1.171875q-1.40625 0 -2.390625 1.140625q-0.984375 1.140625 -0.984375 3.390625zm12.003906 -8.296875l0 -2.4375l2.109375 0l0 2.4375l-2.109375 0zm0 14.75l0 -12.453125l2.109375 0l0 12.453125l-2.109375 0zm13.441406 -4.5625l2.078125 0.265625q-0.34375 2.15625 -1.75 3.375q-1.390625 1.203125 -3.4375 1.203125q-2.546875 0 -4.109375 -1.671875q-1.546875 -1.671875 -1.546875 -4.78125q0 -2.015625 0.671875 -3.53125q0.671875 -1.515625 2.03125 -2.265625q1.359375 -0.765625 2.96875 -0.765625q2.03125 0 3.3125 1.03125q1.296875 1.03125 1.65625 2.90625l-2.046875 0.328125q-0.296875 -1.265625 -1.046875 -1.890625q-0.734375 -0.640625 -1.796875 -0.640625q-1.59375 0 -2.59375 1.15625q-0.984375 1.140625 -0.984375 3.609375q0 2.5 0.953125 3.640625q0.96875 1.140625 2.515625 1.140625q1.234375 0 2.0625 -0.765625q0.84375 -0.765625 1.0625 -2.34375z" fill-rule="nonzero"/><path fill="#000000" fill-opacity="0.0" d="m1.4198008 146.37926l41.732285 0l0 290.86615l-41.732285 0z" fill-rule="evenodd"/><path fill="#000000" d="m12.763551 163.19301l9.156251 0q2.71875 0 4.046875 0.234375q1.34375 0.21875 2.390625 0.9375q1.0625 0.71875 1.765625 1.921875q0.703125 1.1875 0.703125 2.671875q0 1.609375 -0.875 2.953125q-0.859375 1.34375 -2.34375 2.015625q2.09375 0.609375 3.21875 2.078125q1.125 1.46875 1.125 3.453125q0 1.5625 -0.734375 3.046875q-0.71875 1.46875 -1.984375 2.359375q-1.25 0.875 -3.09375 1.078125q-1.15625 0.125 -5.578125 0.15625l-7.796876 0l0 -22.90625zm4.625001 3.8125l0 5.296875l3.03125 0q2.703125 0 3.359375 -0.078125q1.1875 -0.140625 1.859375 -0.8125q0.6875 -0.6875 0.6875 -1.796875q0 -1.0625 -0.59375 -1.71875q-0.578125 -0.671875 -1.734375 -0.8125q-0.6875 -0.078125 -3.953125 -0.078125l-2.65625 0zm0 9.109375l0 6.125l4.28125 0q2.5 0 3.171875 -0.140625q1.03125 -0.1875 1.671875 -0.90625q0.65625 -0.734375 0.65625 -1.953125q0 -1.03125 -0.5 -1.75q-0.5 -0.71875 -1.453125 -1.046875q-0.9375 -0.328125 -4.09375 -0.328125l-3.734375 0z" fill-rule="nonzero"/><path fill="#000000" d="m33.404175 224.49927l-5.031248 0l-2.0 -5.203125l-9.15625 0l-1.890626 5.203125l-4.90625 0l8.921876 -22.90625l4.890625 0l9.171873 22.90625zm-8.515623 -9.0625l-3.15625 -8.5l-3.09375 8.5l6.25 0z" fill-rule="nonzero"/><path fill="#000000" d="m27.404177 254.47739l4.484375 1.421875q-1.03125 3.75 -3.4375 5.578125q-2.390625 1.8125 -6.078125 1.8125q-4.5625 0 -7.500001 -3.109375q-2.9375 -3.125 -2.9375 -8.53125q0 -5.71875 2.953125 -8.875q2.953126 -3.171875 7.765626 -3.171875q4.203125 0 6.828125 2.484375q1.5625 1.46875 2.34375 4.21875l-4.578125 1.09375q-0.40625 -1.78125 -1.703125 -2.8125q-1.28125 -1.03125 -3.125 -1.03125q-2.546875 0 -4.140625 1.828125q-1.578125 1.828125 -1.578125 5.921875q0 4.34375 1.5625 6.1875q1.5625 1.84375 4.0625 1.84375q1.84375 0 3.171875 -1.171875q1.328125 -1.171875 1.90625 -3.6875z" fill-rule="nonzero"/><path fill="#000000" d="m12.810426 301.29926l0 -22.90625l4.625001 0l0 10.171875l9.34375 -10.171875l6.218748 0l-8.624998 8.921875l9.093748 13.984375l-5.984373 0l-6.296875 -10.75l-3.75 3.828125l0 6.921875l-4.625001 0z" fill-rule="nonzero"/><path fill="#000000" d="m12.747926 339.69925l0 -22.90625l16.984375 0l0 3.875l-12.359375 0l0 5.078125l11.5 0l0 3.859375l-11.5 0l0 6.234375l12.796875 0l0 3.859375l-17.421875 0z" fill-rule="nonzero"/><path fill="#000000" d="m12.794801 378.09924l0 -22.90625l4.500001 0l9.375 15.296875l0 -15.296875l4.296875 0l0 22.90625l-4.640625 0l-9.234375 -14.9375l0 14.9375l-4.296876 0z" fill-rule="nonzero"/><path fill="#000000" d="m12.732301 393.593l8.453126 0q2.859375 0 4.359375 0.4375q2.015625 0.59375 3.453125 2.109375q1.4375 1.515625 2.1875 3.71875q0.75 2.1875 0.75 5.40625q0 2.828125 -0.703125 4.875q-0.859375 2.5 -2.453125 4.046875q-1.203125 1.171875 -3.25 1.828125q-1.53125 0.484375 -4.09375 0.484375l-8.703126 0l0 -22.90625zm4.625001 3.875l0 15.171875l3.453125 0q1.9375 0 2.796875 -0.21875q1.125 -0.28125 1.859375 -0.953125q0.75 -0.671875 1.21875 -2.203125q0.46875 -1.546875 0.46875 -4.203125q0 -2.65625 -0.46875 -4.078125q-0.46875 -1.421875 -1.3125 -2.21875q-0.84375 -0.796875 -2.140625 -1.078125q-0.96875 -0.21875 -3.796875 -0.21875l-2.078125 0z" fill-rule="nonzero"/><path fill="#000000" fill-opacity="0.0" d="m446.90567 126.97769l41.73227 0l0 329.66928l-41.73227 0z" fill-rule="evenodd"/><path fill="#000000" d="m458.26505 166.6977l0 -22.90625l15.703125 0l0 3.875l-11.078125 0l0 5.421875l9.5625 0l0 3.875l-9.5625 0l0 9.734375l-4.625 0z" fill-rule="nonzero"/><path fill="#000000" d="m458.24942 205.09769l0 -22.90625l9.734375 0q3.671875 0 5.328125 0.625q1.671875 0.609375 2.671875 2.1875q1.0 1.578125 1.0 3.609375q0 2.578125 -1.515625 4.265625q-1.515625 1.671875 -4.53125 2.109375q1.5 0.875 2.46875 1.921875q0.984375 1.046875 2.640625 3.71875l2.796875 4.46875l-5.53125 0l-3.34375 -4.984375q-1.78125 -2.671875 -2.4375 -3.359375q-0.65625 -0.703125 -1.390625 -0.953125q-0.734375 -0.265625 -2.328125 -0.265625l-0.9375 0l0 9.5625l-4.625 0zm4.625 -13.21875l3.421875 0q3.328125 0 4.15625 -0.28125q0.828125 -0.28125 1.296875 -0.96875q0.46875 -0.6875 0.46875 -1.71875q0 -1.15625 -0.625 -1.859375q-0.609375 -0.71875 -1.734375 -0.90625q-0.5625 -0.078125 -3.375 -0.078125l-3.609375 0l0 5.8125z" fill-rule="nonzero"/><path fill="#000000" d="m457.2963 232.1852q0 -3.5 1.046875 -5.875q0.78125 -1.75 2.125 -3.140625q1.359375 -1.390625 2.96875 -2.0625q2.140625 -0.90625 4.9375 -0.90625q5.0625 0 8.09375 3.140625q3.046875 3.140625 3.046875 8.734375q0 5.546875 -3.015625 8.6875q-3.015625 3.125 -8.0625 3.125q-5.109375 0 -8.125 -3.109375q-3.015625 -3.125 -3.015625 -8.59375zm4.765625 -0.15625q0 3.890625 1.796875 5.90625q1.796875 2.0 4.5625 2.0q2.765625 0 4.53125 -1.984375q1.78125 -2.0 1.78125 -5.984375q0 -3.9375 -1.734375 -5.875q-1.71875 -1.9375 -4.578125 -1.9375q-2.859375 0 -4.609375 1.96875q-1.75 1.953125 -1.75 5.90625z" fill-rule="nonzero"/><path fill="#000000" d="m458.28067 281.89767l0 -22.90625l4.5 0l9.375 15.296875l0 -15.296875l4.296875 0l0 22.90625l-4.640625 0l-9.234375 -14.9375l0 14.9375l-4.296875 0z" fill-rule="nonzero"/><path fill="#000000" d="m463.39005 320.29767l0 -19.03125l-6.796875 0l0 -3.875l18.203125 0l0 3.875l-6.78125 0l0 19.03125l-4.625 0z" fill-rule="nonzero"/><path fill="#000000" d="m458.2338 358.69766l0 -22.90625l16.984375 0l0 3.875l-12.359375 0l0 5.078125l11.5 0l0 3.859375l-11.5 0l0 6.234375l12.796875 0l0 3.859375l-17.421875 0z" fill-rule="nonzero"/><path fill="#000000" d="m458.28067 397.09766l0 -22.90625l4.5 0l9.375 15.296875l0 -15.296875l4.296875 0l0 22.90625l-4.640625 0l-9.234375 -14.9375l0 14.9375l-4.296875 0z" fill-rule="nonzero"/><path fill="#000000" d="m458.21817 412.5914l8.453125 0q2.859375 0 4.359375 0.4375q2.015625 0.59375 3.453125 2.109375q1.4375 1.515625 2.1875 3.71875q0.75 2.1875 0.75 5.40625q0 2.828125 -0.703125 4.875q-0.859375 2.5 -2.453125 4.046875q-1.203125 1.171875 -3.25 1.828125q-1.53125 0.484375 -4.09375 0.484375l-8.703125 0l0 -22.90625zm4.625 3.875l0 15.171875l3.453125 0q1.9375 0 2.796875 -0.21875q1.125 -0.28125 1.859375 -0.953125q0.75 -0.671875 1.21875 -2.203125q0.46875 -1.546875 0.46875 -4.203125q0 -2.65625 -0.46875 -4.078125q-0.46875 -1.421875 -1.3125 -2.21875q-0.84375 -0.796875 -2.140625 -1.078125q-0.96875 -0.21875 -3.796875 -0.21875l-2.078125 0z" fill-rule="nonzero"/><path fill="#000000" fill-opacity="0.0" d="m44.2492 3.665354l415.74802 0l0 87.27559l-415.74802 0z" fill-rule="evenodd"/><path fill="#000000" d="m162.01382 43.385357l0 -22.906252l4.625 0l0 9.015625l9.0625 0l0 -9.015625l4.625 0l0 22.906252l-4.625 0l0 -10.015625l-9.0625 0l0 10.015625l-4.625 0zm26.34375 -11.531252l-3.984375 -0.71875q0.671875 -2.40625 2.3125 -3.5625q1.640625 -1.15625 4.875 -1.15625q2.9375 0 4.375 0.703125q1.4375 0.6875 2.015625 1.765625q0.59375 1.0625 0.59375 3.921877l-0.046875 5.125q0 2.1875 0.203125 3.234375q0.21875 1.03125 0.796875 2.21875l-4.34375 0q-0.171875 -0.4375 -0.421875 -1.296875q-0.109375 -0.390625 -0.15625 -0.515625q-1.125 1.09375 -2.40625 1.640625q-1.28125 0.546875 -2.734375 0.546875q-2.5625 0 -4.046875 -1.390625q-1.46875 -1.390625 -1.46875 -3.515625q0 -1.40625 0.671875 -2.5q0.671875 -1.109375 1.875 -1.6875q1.21875 -0.59375 3.5 -1.03125q3.078125 -0.578125 4.265625 -1.078125l0 -0.4375q0 -1.2656269 -0.625 -1.7968769q-0.625 -0.546875 -2.359375 -0.546875q-1.171875 0 -1.828125 0.46875q-0.65625 0.453125 -1.0625 1.609375zm5.875 3.562502q-0.84375 0.28125 -2.671875 0.671875q-1.828125 0.390625 -2.390625 0.765625q-0.859375 0.609375 -0.859375 1.546875q0 0.921875 0.6875 1.59375q0.6875 0.671875 1.75 0.671875q1.1875 0 2.265625 -0.78125q0.796875 -0.59375 1.046875 -1.453125q0.171875 -0.5625 0.171875 -2.140625l0 -0.875zm8.640625 7.96875l0 -22.906252l4.390625 0l0 22.906252l-4.390625 0zm7.875 -8.53125q0 -2.1875 1.078125 -4.234377q1.078125 -2.046875 3.046875 -3.125q1.984375 -1.078125 4.421875 -1.078125q3.765625 0 6.171875 2.453125q2.40625 2.4375 2.40625 6.171877q0 3.765625 -2.4375 6.25q-2.421875 2.46875 -6.109375 2.46875q-2.28125 0 -4.359375 -1.03125q-2.0625 -1.03125 -3.140625 -3.015625q-1.078125 -2.0 -1.078125 -4.859375zm4.5 0.234375q0 2.46875 1.171875 3.78125q1.171875 1.3125 2.890625 1.3125q1.71875 0 2.875 -1.3125q1.171875 -1.3125 1.171875 -3.8125q0 -2.4375 -1.171875 -3.750002q-1.15625 -1.3125 -2.875 -1.3125q-1.71875 0 -2.890625 1.3125q-1.171875 1.3125019 -1.171875 3.781252zm35.640625 -0.125l0 -3.859377l9.96875 0l0 9.125002q-1.453125 1.40625 -4.21875 2.484375q-2.75 1.0625 -5.578125 1.0625q-3.59375 0 -6.265625 -1.5q-2.671875 -1.515625 -4.015625 -4.3125q-1.34375 -2.8125 -1.34375 -6.109377q0 -3.578125 1.5 -6.359375q1.5 -2.78125 4.390625 -4.265625q2.203125 -1.140625 5.484375 -1.140625q4.265625 0 6.65625 1.796875q2.40625 1.78125 3.09375 4.9375l-4.59375 0.859375q-0.484375 -1.6875 -1.828125 -2.65625q-1.328125 -0.984375 -3.328125 -0.984375q-3.03125 0 -4.828125 1.921875q-1.78125 1.921875 -1.78125 5.703125q0 4.078127 1.8125 6.125002q1.8125 2.03125 4.75 2.03125q1.453125 0 2.90625 -0.5625q1.46875 -0.578125 2.515625 -1.390625l0 -2.90625l-5.296875 0zm13.1875 -0.109375q0 -2.1875 1.078125 -4.234377q1.078125 -2.046875 3.046875 -3.125q1.984375 -1.078125 4.421875 -1.078125q3.765625 0 6.171875 2.453125q2.40625 2.4375 2.40625 6.171877q0 3.765625 -2.4375 6.25q-2.421875 2.46875 -6.109375 2.46875q-2.28125 0 -4.359375 -1.03125q-2.0625 -1.03125 -3.140625 -3.015625q-1.078125 -2.0 -1.078125 -4.859375zm4.5 0.234375q0 2.46875 1.171875 3.78125q1.171875 1.3125 2.890625 1.3125q1.71875 0 2.875 -1.3125q1.171875 -1.3125 1.171875 -3.8125q0 -2.4375 -1.171875 -3.750002q-1.15625 -1.3125 -2.875 -1.3125q-1.71875 0 -2.890625 1.3125q-1.171875 1.3125019 -1.171875 3.781252zm19.15625 8.296875l-5.25 -16.593752l4.265625 0l3.109375 10.875002l2.859375 -10.875002l4.234375 0l2.765625 10.875002l3.1719055 -10.875002l4.328125 0l-5.328125 16.593752l-4.2187805 0l-2.859375 -10.671875l-2.8125 10.671875l-4.265625 0zm20.78128 -8.53125q0 -2.1875 1.078125 -4.234377q1.078125 -2.046875 3.046875 -3.125q1.984375 -1.078125 4.421875 -1.078125q3.765625 0 6.171875 2.453125q2.40625 2.4375 2.40625 6.171877q0 3.765625 -2.4375 6.25q-2.421875 2.46875 -6.109375 2.46875q-2.28125 0 -4.359375 -1.03125q-2.0625 -1.03125 -3.140625 -3.015625q-1.078125 -2.0 -1.078125 -4.859375zm4.5 0.234375q0 2.46875 1.171875 3.78125q1.171875 1.3125 2.890625 1.3125q1.71875 0 2.875 -1.3125q1.171875 -1.3125 1.171875 -3.8125q0 -2.4375 -1.171875 -3.750002q-1.15625 -1.3125 -2.875 -1.3125q-1.71875 0 -2.890625 1.3125q-1.171875 1.3125019 -1.171875 3.781252zm15.90625 8.296875l0 -22.906252l4.390625 0l0 12.156252l5.140625 -5.843752l5.40625 0l-5.671875 6.062502l6.078125 10.53125l-4.734375 0l-4.171875 -7.453125l-2.046875 2.140625l0 5.3125l-4.390625 0z" fill-rule="nonzero"/><path fill="#000000" d="m133.85757 74.105354l0 -17.187496l3.421875 0l4.0625 12.171871q0.5625 1.703125 0.828125 2.546875q0.296875 -0.9375 0.90625 -2.765625l4.125 -11.953121l3.046875 0l0 17.187496l-2.1875 0l0 -14.374996l-4.984375 14.374996l-2.0625 0l-4.96875 -14.624996l0 14.624996l-2.1875 0zm19.289062 -5.515625l2.140625 -0.1875q0.15625 1.28125 0.703125 2.109375q0.5625 0.828125 1.734375 1.34375q1.171875 0.5 2.640625 0.5q1.296875 0 2.296875 -0.375q1.0 -0.390625 1.484375 -1.0625q0.484375 -0.6875 0.484375 -1.484375q0 -0.796875 -0.46875 -1.40625q-0.46875 -0.609375 -1.546875 -1.015625q-0.6875 -0.265625 -3.0625 -0.828125q-2.359375 -0.578125 -3.3125 -1.078125q-1.234375 -0.640625 -1.84375 -1.5937462q-0.59375 -0.96875 -0.59375 -2.140625q0 -1.3125 0.734375 -2.4375q0.75 -1.125 2.15625 -1.703125q1.421875 -0.59375 3.15625 -0.59375q1.90625 0 3.359375 0.609375q1.46875 0.609375 2.25 1.8125q0.796875 1.1875 0.84375 2.703125l-2.171875 0.171875q-0.171875 -1.640625 -1.1875 -2.46875q-1.015625 -0.828125 -3.0 -0.828125q-2.0625 0 -3.015625 0.765625q-0.9375 0.75 -0.9375 1.8125q0 0.921875 0.671875 1.515625q0.65625 0.609375 3.421875 1.234375q2.78125 0.6249962 3.8125 1.0937462q1.5 0.6875 2.203125 1.75q0.71875 1.0625 0.71875 2.4375q0 1.375 -0.78125 2.59375q-0.78125 1.203125 -2.25 1.890625q-1.46875 0.671875 -3.3125 0.671875q-2.328125 0 -3.90625 -0.671875q-1.578125 -0.6875 -2.484375 -2.046875q-0.890625 -1.375 -0.9375 -3.09375zm21.695312 5.515625l-6.65625 -17.187496l2.453125 0l4.46875 12.484371q0.546875 1.5 0.90625 2.8125q0.390625 -1.40625 0.921875 -2.8125l4.640625 -12.484371l2.328125 0l-6.734375 17.187496l-2.328125 0zm23.351562 -6.03125l2.28125 0.578125q-0.71875 2.796875 -2.578125 4.28125q-1.859375 1.46875 -4.546875 1.46875q-2.765625 0 -4.515625 -1.125q-1.734375 -1.140625 -2.640625 -3.28125q-0.90625 -2.15625 -0.90625 -4.609375q0 -2.6874962 1.015625 -4.687496q1.03125 -2.0 2.921875 -3.03125q1.890625 -1.03125 4.171875 -1.03125q2.578125 0 4.328125 1.3125q1.765625 1.3125 2.453125 3.6875l-2.234375 0.53125q-0.609375 -1.875 -1.75 -2.734375q-1.125 -0.859375 -2.84375 -0.859375q-1.984375 0 -3.3125 0.953125q-1.328125 0.953125 -1.875 2.546875q-0.53125 1.59375 -0.53125 3.2968712q0 2.1875 0.625 3.828125q0.640625 1.640625 1.984375 2.453125q1.359375 0.796875 2.921875 0.796875q1.921875 0 3.234375 -1.09375q1.328125 -1.109375 1.796875 -3.28125zm12.125 6.03125l0 -17.187496l2.28125 0l0 17.187496l-2.28125 0zm6.0117188 0l0 -12.453121l1.890625 0l0 1.75q0.59375 -0.90625 1.5625 -1.46875q0.96875 -0.5625 2.21875 -0.5625q1.375 0 2.25 0.578125q0.890625 0.578125 1.265625 1.609375q1.46875 -2.1875 3.84375 -2.1875q1.84375 0 2.84375 1.03125q1.0 1.03125 1.0 3.1562462l0 8.546875l-2.109375 0l0 -7.84375q0 -1.265625 -0.203125 -1.8125q-0.203125 -0.5624962 -0.75 -0.9062462q-0.53125 -0.34375 -1.25 -0.34375q-1.3125 0 -2.1875 0.8749962q-0.859375 0.875 -0.859375 2.796875l0 7.234375l-2.109375 0l0 -8.09375q0 -1.40625 -0.515625 -2.1093712q-0.515625 -0.703125 -1.6875 -0.703125q-0.890625 0 -1.65625 0.46875q-0.75 0.4687462 -1.09375 1.3749962q-0.34375 0.90625 -0.34375 2.609375l0 6.453125l-2.109375 0zm19.992188 4.765625l0 -17.218746l1.921875 0l0 1.625q0.6875 -0.953125 1.53125 -1.421875q0.859375 -0.484375 2.078125 -0.484375q1.59375 0 2.8125 0.828125q1.21875 0.8125 1.84375 2.3124962q0.625 1.5 0.625 3.28125q0 1.90625 -0.6875 3.4375q-0.6875 1.53125 -2.0 2.34375q-1.296875 0.8125 -2.734375 0.8125q-1.0625 0 -1.90625 -0.4375q-0.828125 -0.453125 -1.375 -1.140625l0 6.0625l-2.109375 0zm1.921875 -10.921875q0 2.40625 0.96875 3.5625q0.96875 1.140625 2.359375 1.140625q1.40625 0 2.40625 -1.1875q1.0 -1.1875 1.0 -3.6875q0 -2.375 -0.984375 -3.5625q-0.96875 -1.1874962 -2.328125 -1.1874962q-1.359375 0 -2.390625 1.2656212q-1.03125 1.25 -1.03125 3.65625zm11.378906 6.15625l0 -17.187496l2.109375 0l0 17.187496l-2.109375 0zm13.910156 -4.015625l2.171875 0.28125q-0.515625 1.90625 -1.90625 2.96875q-1.390625 1.046875 -3.5625 1.046875q-2.734375 0 -4.34375 -1.671875q-1.59375 -1.6875 -1.59375 -4.734375q0 -3.140625 1.609375 -4.874996q1.625 -1.734375 4.203125 -1.734375q2.5 0 4.078125 1.703125q1.59375 1.7031212 1.59375 4.781246q0 0.1875 -0.015625 0.5625l-9.28125 0q0.109375 2.046875 1.15625 3.140625q1.046875 1.09375 2.609375 1.09375q1.15625 0 1.96875 -0.609375q0.828125 -0.609375 1.3125 -1.953125zm-6.9375 -3.40625l6.953125 0q-0.140625 -1.5625 -0.796875 -2.359375q-1.0 -1.2187462 -2.609375 -1.2187462q-1.453125 0 -2.453125 0.9843712q-0.984375 0.96875 -1.09375 2.59375zm11.753906 7.421875l0 -12.453121l1.890625 0l0 1.75q0.59375 -0.90625 1.5625 -1.46875q0.96875 -0.5625 2.21875 -0.5625q1.375 0 2.25 0.578125q0.890625 0.578125 1.265625 1.609375q1.46875 -2.1875 3.84375 -2.1875q1.84375 0 2.84375 1.03125q1.0 1.03125 1.0 3.1562462l0 8.546875l-2.109375 0l0 -7.84375q0 -1.265625 -0.203125 -1.8125q-0.203125 -0.5624962 -0.75 -0.9062462q-0.53125 -0.34375 -1.25 -0.34375q-1.3125 0 -2.1875 0.8749962q-0.859375 0.875 -0.859375 2.796875l0 7.234375l-2.109375 0l0 -8.09375q0 -1.40625 -0.515625 -2.1093712q-0.515625 -0.703125 -1.6875 -0.703125q-0.890625 0 -1.65625 0.46875q-0.75 0.4687462 -1.09375 1.3749962q-0.34375 0.90625 -0.34375 2.609375l0 6.453125l-2.109375 0zm28.523438 -4.015625l2.171875 0.28125q-0.515625 1.90625 -1.90625 2.96875q-1.390625 1.046875 -3.5625 1.046875q-2.734375 0 -4.34375 -1.671875q-1.59375 -1.6875 -1.59375 -4.734375q0 -3.140625 1.609375 -4.874996q1.625 -1.734375 4.203125 -1.734375q2.5 0 4.078125 1.703125q1.59375 1.7031212 1.59375 4.781246q0 0.1875 -0.015625 0.5625l-9.28125 0q0.109375 2.046875 1.15625 3.140625q1.046875 1.09375 2.609375 1.09375q1.15625 0 1.96875 -0.609375q0.828125 -0.609375 1.3125 -1.953125zm-6.9375 -3.40625l6.953125 0q-0.140625 -1.5625 -0.796875 -2.359375q-1.0 -1.2187462 -2.609375 -1.2187462q-1.453125 0 -2.453125 0.9843712q-0.984375 0.96875 -1.09375 2.59375zm11.753937 7.421875l0 -12.453121l1.90625 0l0 1.78125q1.375 -2.0625 3.953125 -2.0625q1.125 0 2.0625 0.40625q0.953125 0.40625 1.421875 1.0625q0.46875 0.65625 0.65625 1.5624962q0.125 0.578125 0.125 2.046875l0 7.65625l-2.109375 0l0 -7.578125q0 -1.28125 -0.25 -1.921875q-0.25 -0.6406212 -0.875 -1.0156212q-0.625 -0.390625 -1.46875 -0.390625q-1.34375 0 -2.328125 0.8593712q-0.984375 0.859375 -0.984375 3.25l0 6.796875l-2.109375 0zm17.957031 -1.890625l0.3125 1.859375q-0.890625 0.203125 -1.59375 0.203125q-1.15625 0 -1.796875 -0.359375q-0.625 -0.375 -0.890625 -0.96875q-0.25 -0.59375 -0.25 -2.484375l0 -7.171871l-1.546875 0l0 -1.640625l1.546875 0l0 -3.078125l2.09375 -1.265625l0 4.34375l2.125 0l0 1.640625l-2.125 0l0 7.281246q0 0.90625 0.109375 1.171875q0.125 0.25 0.375 0.40625q0.25 0.140625 0.71875 0.140625q0.34375 0 0.921875 -0.078125zm10.183594 0.359375q-1.171875 0.984375 -2.265625 1.40625q-1.078125 0.40625 -2.3125 0.40625q-2.046875 0 -3.15625 -1.0q-1.09375 -1.0 -1.09375 -2.5625q0 -0.921875 0.40625 -1.671875q0.421875 -0.75 1.09375 -1.203125q0.671875 -0.46875 1.515625 -0.703125q0.625 -0.15625 1.875 -0.3125q2.5625 -0.3125 3.765625 -0.734375q0.015625 -0.421875 0.015625 -0.546875q0 -1.28125 -0.609375 -1.8124962q-0.796875 -0.71875 -2.390625 -0.71875q-1.5 0 -2.203125 0.53125q-0.703125 0.5156212 -1.046875 1.8437462l-2.0625 -0.28125q0.28125 -1.3281212 0.921875 -2.1406212q0.640625 -0.8125 1.859375 -1.25q1.21875 -0.453125 2.828125 -0.453125q1.59375 0 2.59375 0.375q1.0 0.375 1.46875 0.953125q0.46875 0.5625 0.65625 1.4374962q0.09375 0.53125 0.09375 1.9375l0 2.8125q0 2.9375 0.140625 3.71875q0.140625 0.78125 0.53125 1.5l-2.203125 0q-0.328125 -0.65625 -0.421875 -1.53125zm-0.171875 -4.71875q-1.15625 0.46875 -3.453125 0.796875q-1.296875 0.1875 -1.84375 0.421875q-0.53125 0.234375 -0.828125 0.6875q-0.28125 0.453125 -0.28125 1.0q0 0.84375 0.625 1.40625q0.640625 0.5625 1.875 0.5625q1.21875 0 2.171875 -0.53125q0.953125 -0.53125 1.390625 -1.453125q0.34375 -0.71875 0.34375 -2.109375l0 -0.78125zm10.003906 4.359375l0.3125 1.859375q-0.890625 0.203125 -1.59375 0.203125q-1.15625 0 -1.796875 -0.359375q-0.625 -0.375 -0.890625 -0.96875q-0.25 -0.59375 -0.25 -2.484375l0 -7.171871l-1.546875 0l0 -1.640625l1.546875 0l0 -3.078125l2.09375 -1.265625l0 4.34375l2.125 0l0 1.640625l-2.125 0l0 7.281246q0 0.90625 0.109375 1.171875q0.125 0.25 0.375 0.40625q0.25 0.140625 0.71875 0.140625q0.34375 0 0.921875 -0.078125zm2.0742188 -12.859371l0 -2.4375l2.109375 0l0 2.4375l-2.109375 0zm0 14.749996l0 -12.453121l2.109375 0l0 12.453121l-2.109375 0zm4.5351562 -6.21875q0 -3.46875 1.921875 -5.124996q1.609375 -1.390625 3.921875 -1.390625q2.5625 0 4.1875 1.6875q1.625 1.6874962 1.625 4.640621q0 2.40625 -0.71875 3.78125q-0.71875 1.375 -2.09375 2.140625q-1.375 0.765625 -3.0 0.765625q-2.625 0 -4.234375 -1.671875q-1.609375 -1.6875 -1.609375 -4.828125zm2.171875 0q0 2.390625 1.03125 3.578125q1.046875 1.1875 2.640625 1.1875q1.5625 0 2.609375 -1.1875q1.046875 -1.203125 1.046875 -3.65625q0 -2.3125 -1.0625 -3.5q-1.046875 -1.1874962 -2.59375 -1.1874962q-1.59375 0 -2.640625 1.1874962q-1.03125 1.1875 -1.03125 3.578125zm11.957031 6.21875l0 -12.453121l1.90625 0l0 1.78125q1.375 -2.0625 3.953125 -2.0625q1.125 0 2.0625 0.40625q0.953125 0.40625 1.421875 1.0625q0.46875 0.65625 0.65625 1.5624962q0.125 0.578125 0.125 2.046875l0 7.65625l-2.109375 0l0 -7.578125q0 -1.28125 -0.25 -1.921875q-0.25 -0.6406212 -0.875 -1.0156212q-0.625 -0.390625 -1.46875 -0.390625q-1.34375 0 -2.328125 0.8593712q-0.984375 0.859375 -0.984375 3.25l0 6.796875l-2.109375 0z" fill-rule="nonzero"/></g></svg>